<?xml version="1.0" encoding="utf-8"?>
<!-- Generator: Adobe Illustrator 19.2.1, SVG Export Plug-In . SVG Version: 6.00 Build 0)  -->
<svg version="1.1" id="レイヤー_1" xmlns="http://www.w3.org/2000/svg" xmlns:xlink="http://www.w3.org/1999/xlink" x="0px"
	 y="0px" viewBox="0 0 40 40" style="enable-background:new 0 0 40 40;" xml:space="preserve">
<style type="text/css">
	.st0{fill:#FFFFFF;stroke:#FFFFFF;stroke-miterlimit:10;}
</style>
<path class="st0" d="M25.9,31.1c-0.2,0.7,2,1.6,1.8,2.5s-12.9,5.6-13.9,4.9s5.3-5.3,2.1-10.3s-6.3-1.4-7.2-3.7
	c-0.7-1.6-0.9-4-1.3-4.6c-0.5-0.7-1.1-0.8-1.1-1c-0.1-0.6,1.9-2,1.9-2.8c-0.1-0.9-1.9-0.6-2.1-1.2s2.7,0.1,2.6-1S7,10.6,7.1,9.2
	c0.1-1.5,2-3.4,2.7-4s4.5-3.5,7-3.8C19.5,1,23.6,1.3,25,1.9c1.4,0.6,4.8,4.5,5.8,6.4c1,1.9,3.2,8.8,3.2,11s-1.3,5.6-1.9,6.8
	C31.6,27.2,26.1,30.4,25.9,31.1z"/>
</svg>
